# xmcd CD database file
#
# Track frame offsets:
#	150
#	16822
#	31887
#	42525
#	57320
#	73675
#	92765
#	106855
#	116542
#	132480
#	144752
#	154730
#	169305
#	181692
#	204117
#	216732
#	235310
#	247932
#
# Disc length: 3434 seconds
#
# Revision: 0
# Processed by: cddbd v1.5.1PL0 Copyright (c) Steve Scherf et al.
# Submitted via: CDex 1.51
#
DISCID=f60d6812
DTITLE=Collection - What a wonderful JAZZ
DYEAR=1999
DGENRE=Jazz
TTITLE0=SECRET LOVE/DORIS DAY
TTITLE1=PEOPLE WILL SAY WE'RE IN LOVE/ fRANK SINATRA
TTITLE2=WINDMILLS OF YOUR MIND/NOEL HARRISON
TTITLE3=UNCHAINED MELODY /ANDY WILLIAMS
TTITLE4=MY BABY JUST CARES FOR ME/NINA SIMONE
TTITLE5=LA VIE EN ROSE/LOUIS ARMSTRONG
TTITLE6=CHEEK TO CHEEK /GINGER ROGERS
TTITLE7=PUTTIN' ON THE RITZ/FRED ASTRAIRE
TTITLE8=IF YOU DON'T KNOW ME BY NOW/HAROLD MELVIN
TTITLE9=SOMETHING STUPID/FRANK&NANCY SINATRA
TTITLE10=ONCE IN LOVE WITH AMY/DEAN MARTIN
TTITLE11=EARLY AUTUMN/WOODY HERMAN
TTITLE12=AUTUMN LEAVES/ANDY WILLIAMS
TTITLE13=IF YOU GO AWAY/SCOTT WALKER
TTITLE14=BORN FREE/MATT MONRO
TTITLE15=THIS MASQUERADE/CARMAN MCRAE
TTITLE16=LOVE IS HERE TO STAY/NAT KING COLE
TTITLE17=ALL THE WAY/fRANK SINATRA
EXTD=YEAR: 1999
EXTT0=
EXTT1=
EXTT2=
EXTT3=
EXTT4=
EXTT5=
EXTT6=
EXTT7=
EXTT8=
EXTT9=
EXTT10=
EXTT11=
EXTT12=
EXTT13=
EXTT14=
EXTT15=
EXTT16=
EXTT17=
PLAYORDER=
